<?xml version="1.0" encoding="UTF-8" standalone="no"?>
<!DOCTYPE svg PUBLIC "-//W3C//DTD SVG 1.1//EN"
 "http://www.w3.org/Graphics/SVG/1.1/DTD/svg11.dtd">
<!-- Generated by graphviz version 14.1.2 (20260126.1125)
 -->
<!-- Title: ganglion Pages: 1 -->
<svg width="643pt" height="138pt"
 viewBox="0.00 0.00 643.00 138.00" xmlns="http://www.w3.org/2000/svg" xmlns:xlink="http://www.w3.org/1999/xlink">
<g id="graph0" class="graph" transform="scale(1 1) rotate(0) translate(2.88 134.64)">
<title>ganglion</title>
<polygon fill="white" stroke="none" points="-2.88,2.88 -2.88,-134.64 640.08,-134.64 640.08,2.88 -2.88,2.88"/>
<!-- spec -->
<g id="node1" class="node">
<title>spec</title>
<path fill="none" stroke="black" stroke-width="0.8" d="M85.2,-131.76C85.2,-131.76 12,-131.76 12,-131.76 6,-131.76 0,-125.76 0,-119.76 0,-119.76 0,-102 0,-102 0,-96 6,-90 12,-90 12,-90 85.2,-90 85.2,-90 91.2,-90 97.2,-96 97.2,-102 97.2,-102 97.2,-119.76 97.2,-119.76 97.2,-125.76 91.2,-131.76 85.2,-131.76"/>
<text xml:space="preserve" text-anchor="middle" x="48.6" y="-115.83" font-family="Noto Sans CJK KR" font-size="9.00">도메인 스펙</text>
<text xml:space="preserve" text-anchor="middle" x="48.6" y="-102.33" font-family="Noto Sans CJK KR" font-size="9.00">배포 목표</text>
</g>
<!-- contract -->
<g id="node2" class="node">
<title>contract</title>
<path fill="none" stroke="black" stroke-width="0.8" d="M220.2,-131.76C220.2,-131.76 147,-131.76 147,-131.76 141,-131.76 135,-125.76 135,-119.76 135,-119.76 135,-102 135,-102 135,-96 141,-90 147,-90 147,-90 220.2,-90 220.2,-90 226.2,-90 232.2,-96 232.2,-102 232.2,-102 232.2,-119.76 232.2,-119.76 232.2,-125.76 226.2,-131.76 220.2,-131.76"/>
<text xml:space="preserve" text-anchor="middle" x="183.6" y="-122.58" font-family="Noto Sans CJK KR" font-size="9.00">계약 컴파일러</text>
<text xml:space="preserve" text-anchor="middle" x="183.6" y="-109.08" font-family="Noto Sans CJK KR" font-size="9.00">(contract)</text>
<text xml:space="preserve" text-anchor="middle" x="183.6" y="-95.58" font-family="Noto Sans CJK KR" font-size="9.00">IR · 검증기 생성</text>
</g>
<!-- spec&#45;&gt;contract -->
<g id="edge1" class="edge">
<title>spec&#45;&gt;contract</title>
<path fill="none" stroke="black" stroke-width="0.8" d="M97.34,-110.88C107.09,-110.88 117.41,-110.88 127.38,-110.88"/>
<polygon fill="black" stroke="black" stroke-width="0.8" points="127.22,-113.16 133.72,-110.88 127.22,-108.61 127.22,-113.16"/>
</g>
<!-- controller -->
<g id="node3" class="node">
<title>controller</title>
<path fill="none" stroke="black" stroke-width="0.8" d="M355.2,-131.76C355.2,-131.76 282,-131.76 282,-131.76 276,-131.76 270,-125.76 270,-119.76 270,-119.76 270,-102 270,-102 270,-96 276,-90 282,-90 282,-90 355.2,-90 355.2,-90 361.2,-90 367.2,-96 367.2,-102 367.2,-102 367.2,-119.76 367.2,-119.76 367.2,-125.76 361.2,-131.76 355.2,-131.76"/>
<text xml:space="preserve" text-anchor="middle" x="318.6" y="-115.83" font-family="Noto Sans CJK KR" font-size="9.00">팩토리 제어기</text>
<text xml:space="preserve" text-anchor="middle" x="318.6" y="-102.33" font-family="Noto Sans CJK KR" font-size="9.00">다음 후보 선택</text>
</g>
<!-- contract&#45;&gt;controller -->
<g id="edge2" class="edge">
<title>contract&#45;&gt;controller</title>
<path fill="none" stroke="black" stroke-width="0.8" d="M232.34,-110.88C242.09,-110.88 252.41,-110.88 262.38,-110.88"/>
<polygon fill="black" stroke="black" stroke-width="0.8" points="262.22,-113.16 268.72,-110.88 262.22,-108.61 262.22,-113.16"/>
</g>
<!-- builder -->
<g id="node4" class="node">
<title>builder</title>
<path fill="none" stroke="black" stroke-width="0.8" d="M490.2,-131.76C490.2,-131.76 417,-131.76 417,-131.76 411,-131.76 405,-125.76 405,-119.76 405,-119.76 405,-102 405,-102 405,-96 411,-90 417,-90 417,-90 490.2,-90 490.2,-90 496.2,-90 502.2,-96 502.2,-102 502.2,-102 502.2,-119.76 502.2,-119.76 502.2,-125.76 496.2,-131.76 490.2,-131.76"/>
<text xml:space="preserve" text-anchor="middle" x="453.6" y="-115.83" font-family="Noto Sans CJK KR" font-size="9.00">후보 제작 (lm)</text>
<text xml:space="preserve" text-anchor="middle" x="453.6" y="-102.33" font-family="Noto Sans CJK KR" font-size="9.00">합성 · SFT · 압축</text>
</g>
<!-- controller&#45;&gt;builder -->
<g id="edge3" class="edge">
<title>controller&#45;&gt;builder</title>
<path fill="none" stroke="black" stroke-width="0.8" d="M367.34,-110.88C377.09,-110.88 387.41,-110.88 397.38,-110.88"/>
<polygon fill="black" stroke="black" stroke-width="0.8" points="397.22,-113.16 403.72,-110.88 397.22,-108.61 397.22,-113.16"/>
</g>
<!-- evaluation -->
<g id="node5" class="node">
<title>evaluation</title>
<path fill="none" stroke="black" stroke-width="0.8" d="M625.2,-131.76C625.2,-131.76 552,-131.76 552,-131.76 546,-131.76 540,-125.76 540,-119.76 540,-119.76 540,-102 540,-102 540,-96 546,-90 552,-90 552,-90 625.2,-90 625.2,-90 631.2,-90 637.2,-96 637.2,-102 637.2,-102 637.2,-119.76 637.2,-119.76 637.2,-125.76 631.2,-131.76 625.2,-131.76"/>
<text xml:space="preserve" text-anchor="middle" x="588.6" y="-115.83" font-family="Noto Sans CJK KR" font-size="9.00">독립 평가</text>
<text xml:space="preserve" text-anchor="middle" x="588.6" y="-102.33" font-family="Noto Sans CJK KR" font-size="9.00">품질 · 비용 · 회귀</text>
</g>
<!-- builder&#45;&gt;evaluation -->
<g id="edge4" class="edge">
<title>builder&#45;&gt;evaluation</title>
<path fill="none" stroke="black" stroke-width="0.8" d="M502.34,-110.88C512.09,-110.88 522.41,-110.88 532.38,-110.88"/>
<polygon fill="black" stroke="black" stroke-width="0.8" points="532.22,-113.16 538.72,-110.88 532.22,-108.61 532.22,-113.16"/>
</g>
<!-- release -->
<g id="node6" class="node">
<title>release</title>
<path fill="none" stroke="black" stroke-width="0.8" d="M625.2,-41.76C625.2,-41.76 552,-41.76 552,-41.76 546,-41.76 540,-35.76 540,-29.76 540,-29.76 540,-12 540,-12 540,-6 546,0 552,0 552,0 625.2,0 625.2,0 631.2,0 637.2,-6 637.2,-12 637.2,-12 637.2,-29.76 637.2,-29.76 637.2,-35.76 631.2,-41.76 625.2,-41.76"/>
<text xml:space="preserve" text-anchor="middle" x="588.6" y="-25.83" font-family="Noto Sans CJK KR" font-size="9.00">릴리스 번들</text>
<text xml:space="preserve" text-anchor="middle" x="588.6" y="-12.33" font-family="Noto Sans CJK KR" font-size="9.00">모델+계약+규칙</text>
</g>
<!-- evaluation&#45;&gt;release -->
<g id="edge5" class="edge">
<title>evaluation&#45;&gt;release</title>
<path fill="none" stroke="black" stroke-width="0.8" d="M588.6,-90.01C588.6,-77.94 588.6,-62.58 588.6,-49.41"/>
<polygon fill="black" stroke="black" stroke-width="0.8" points="590.88,-49.66 588.6,-43.16 586.33,-49.66 590.88,-49.66"/>
</g>
<!-- runtime -->
<g id="node7" class="node">
<title>runtime</title>
<path fill="none" stroke="black" stroke-width="0.8" d="M490.2,-41.76C490.2,-41.76 417,-41.76 417,-41.76 411,-41.76 405,-35.76 405,-29.76 405,-29.76 405,-12 405,-12 405,-6 411,0 417,0 417,0 490.2,0 490.2,0 496.2,0 502.2,-6 502.2,-12 502.2,-12 502.2,-29.76 502.2,-29.76 502.2,-35.76 496.2,-41.76 490.2,-41.76"/>
<text xml:space="preserve" text-anchor="middle" x="453.6" y="-25.83" font-family="Noto Sans CJK KR" font-size="9.00">런타임</text>
<text xml:space="preserve" text-anchor="middle" x="453.6" y="-12.33" font-family="Noto Sans CJK KR" font-size="9.00">추론·보정·검증·실행</text>
</g>
<!-- release&#45;&gt;runtime -->
<g id="edge6" class="edge">
<title>release&#45;&gt;runtime</title>
<path fill="none" stroke="black" stroke-width="0.8" d="M539.86,-20.88C530.11,-20.88 519.79,-20.88 509.82,-20.88"/>
<polygon fill="black" stroke="black" stroke-width="0.8" points="509.98,-18.61 503.48,-20.88 509.98,-23.16 509.98,-18.61"/>
</g>
<!-- analyzer -->
<g id="node8" class="node">
<title>analyzer</title>
<path fill="none" stroke="black" stroke-width="0.8" d="M355.2,-41.76C355.2,-41.76 282,-41.76 282,-41.76 276,-41.76 270,-35.76 270,-29.76 270,-29.76 270,-12 270,-12 270,-6 276,0 282,0 282,0 355.2,0 355.2,0 361.2,0 367.2,-6 367.2,-12 367.2,-12 367.2,-29.76 367.2,-29.76 367.2,-35.76 361.2,-41.76 355.2,-41.76"/>
<text xml:space="preserve" text-anchor="middle" x="318.6" y="-32.58" font-family="Noto Sans CJK KR" font-size="9.00">분석기 (analyzer)</text>
<text xml:space="preserve" text-anchor="middle" x="318.6" y="-19.08" font-family="Noto Sans CJK KR" font-size="9.00">실패 분류</text>
<text xml:space="preserve" text-anchor="middle" x="318.6" y="-5.58" font-family="Noto Sans CJK KR" font-size="9.00">규칙 합성</text>
</g>
<!-- runtime&#45;&gt;analyzer -->
<g id="edge7" class="edge">
<title>runtime&#45;&gt;analyzer</title>
<path fill="none" stroke="black" stroke-width="0.8" d="M404.86,-20.88C395.11,-20.88 384.79,-20.88 374.82,-20.88"/>
<polygon fill="black" stroke="black" stroke-width="0.8" points="374.98,-18.61 368.48,-20.88 374.98,-23.16 374.98,-18.61"/>
</g>
<!-- analyzer&#45;&gt;controller -->
<g id="edge8" class="edge">
<title>analyzer&#45;&gt;controller</title>
<path fill="none" stroke="black" stroke-width="0.8" stroke-dasharray="5,2" d="M318.6,-41.75C318.6,-53.82 318.6,-69.18 318.6,-82.35"/>
<polygon fill="black" stroke="black" stroke-width="0.8" points="316.33,-82.1 318.6,-88.6 320.88,-82.1 316.33,-82.1"/>
</g>
<!-- l_fb -->
<g id="node9" class="node">
<title>l_fb</title>
<text xml:space="preserve" text-anchor="middle" x="370.6" y="-70" font-family="Noto Sans CJK KR" font-size="7.50">개선 후보</text>
<text xml:space="preserve" text-anchor="middle" x="370.6" y="-58.75" font-family="Noto Sans CJK KR" font-size="7.50">(규칙 패치 · 학습 데이터)</text>
</g>
<!-- l_trace -->
<g id="node10" class="node">
<title>l_trace</title>
<text xml:space="preserve" text-anchor="middle" x="385.6" y="-33.38" font-family="Noto Sans CJK KR" font-size="7.50">운영 trace</text>
</g>
</g>
</svg>
